<?xml version="1.0" encoding="UTF-8"?>
<svg width="207px" height="32px" viewBox="0 0 207 32" version="1.1" xmlns="http://www.w3.org/2000/svg" xmlns:xlink="http://www.w3.org/1999/xlink">
    <title>MoviesLibrary</title>
    <defs>
        <path d="M6.46875,28.4589844 L6.46875,9.68554688 L9.19335938,28.4589844 L13.78125,28.4589844 L16.3652344,9.24609375 L16.3652344,28.4589844 L22.8339844,28.4589844 L22.8339844,0 L13.1835938,0 L11.4960938,13.2890625 L10.4765625,6.046875 C10.1601562,3.7265625 9.86132812,1.7109375 9.58007812,0 L9.58007812,0 L0,0 L0,28.4589844 L6.46875,28.4589844 Z M33.5917969,28.8808594 C34.9980469,28.8808594 36.2431641,28.6787109 37.3271484,28.2744141 C38.4111328,27.8701172 39.2988281,27.2431641 39.9902344,26.3935547 C40.6816406,25.5439453 41.1328125,24.6298828 41.34375,23.6513672 C41.5546875,22.6728516 41.6601562,21.1347656 41.6601562,19.0371094 L41.6601562,19.0371094 L41.6601562,13.3242188 C41.6601562,11.671875 41.5458984,10.4414062 41.3173828,9.6328125 C41.0888672,8.82421875 40.6640625,8.0390625 40.0429688,7.27734375 C39.421875,6.515625 38.5400391,5.89746094 37.3974609,5.42285156 C36.2548828,4.94824219 34.8867188,4.7109375 33.2929688,4.7109375 C31.3945312,4.7109375 29.8359375,5.08007812 28.6171875,5.81835938 C27.3984375,6.55664062 26.5546875,7.53515625 26.0859375,8.75390625 C25.6171875,9.97265625 25.3828125,11.6660156 25.3828125,13.8339844 L25.3828125,13.8339844 L25.3828125,19.8105469 C25.3828125,21.7910156 25.5117188,23.2763672 25.7695312,24.2666016 C26.0273438,25.2568359 26.4580078,26.1005859 27.0615234,26.7978516 C27.6650391,27.4951172 28.5117188,28.0166016 29.6015625,28.3623047 C30.6914062,28.7080078 32.0214844,28.8808594 33.5917969,28.8808594 Z M33.5214844,24.75 C33.1113281,24.75 32.8359375,24.5830078 32.6953125,24.2490234 C32.5546875,23.9150391 32.484375,23.1972656 32.484375,22.0957031 L32.484375,22.0957031 L32.484375,11.5664062 C32.484375,10.3710938 32.5546875,9.61816406 32.6953125,9.30761719 C32.8359375,8.99707031 33.1171875,8.84179688 33.5390625,8.84179688 C33.9609375,8.84179688 34.2363281,8.99707031 34.3652344,9.30761719 C34.4941406,9.61816406 34.5585938,10.3710938 34.5585938,11.5664062 L34.5585938,11.5664062 L34.5585938,22.3242188 C34.5585938,23.3320312 34.4912109,23.9882812 34.3564453,24.2929688 C34.2216797,24.5976562 33.9433594,24.75 33.5214844,24.75 Z M55.3535156,28.4589844 L58.6757812,5.1328125 L52.3300781,5.1328125 C52.0722656,7.67578125 51.8378906,10.3007812 51.6269531,13.0078125 C51.2636719,17.859375 51.0058594,20.90625 50.8535156,22.1484375 L50.8535156,22.1484375 L48.8671875,5.1328125 L42.5214844,5.1328125 L46.0898438,28.4589844 L55.3535156,28.4589844 Z M67.0429688,3.70898438 L67.0429688,0 L59.7304688,0 L59.7304688,3.70898438 L67.0429688,3.70898438 Z M67.0429688,28.4589844 L67.0429688,5.1328125 L59.7304688,5.1328125 L59.7304688,28.4589844 L67.0429688,28.4589844 Z M77.7304688,28.8808594 C79.2773438,28.8808594 80.5634766,28.6611328 81.5888672,28.2216797 C82.6142578,27.7822266 83.4609375,27.1230469 84.1289062,26.2441406 C84.796875,25.3652344 85.2216797,24.5390625 85.4033203,23.765625 C85.5849609,22.9921875 85.6757812,21.8847656 85.6757812,20.4433594 L85.6757812,20.4433594 L85.6757812,18.7207031 L78.9433594,18.7207031 L78.9433594,21.796875 C78.9433594,22.9570312 78.8525391,23.7392578 78.6708984,24.1435547 C78.4892578,24.5478516 78.1289062,24.75 77.5898438,24.75 C77.15625,24.75 76.8632812,24.5976562 76.7109375,24.2929688 C76.5585938,23.9882812 76.4824219,23.3085938 76.4824219,22.2539062 L76.4824219,22.2539062 L76.4824219,17.2089844 L85.6757812,17.2089844 L85.6757812,14.1152344 C85.6757812,11.8535156 85.4150391,10.0986328 84.8935547,8.85058594 C84.3720703,7.60253906 83.4638672,6.60058594 82.1689453,5.84472656 C80.8740234,5.08886719 79.2304688,4.7109375 77.2382812,4.7109375 C75.609375,4.7109375 74.1679688,5.02441406 72.9140625,5.65136719 C71.6601562,6.27832031 70.7578125,7.18066406 70.2070312,8.35839844 C69.65625,9.53613281 69.3808594,11.1445312 69.3808594,13.1835938 L69.3808594,13.1835938 L69.3808594,19.9863281 C69.3808594,21.7207031 69.5039062,23.0419922 69.75,23.9501953 C69.9960938,24.8583984 70.4384766,25.6904297 71.0771484,26.4462891 C71.7158203,27.2021484 72.609375,27.796875 73.7578125,28.2304688 C74.90625,28.6640625 76.2304688,28.8808594 77.7304688,28.8808594 Z M78.5566406,13.4121094 L76.4824219,13.4121094 L76.4824219,11.7070312 C76.4824219,10.3945312 76.5410156,9.58886719 76.6582031,9.29003906 C76.7753906,8.99121094 77.0800781,8.84179688 77.5722656,8.84179688 C77.9707031,8.84179688 78.234375,9.01757812 78.3632812,9.36914062 C78.4921875,9.72070312 78.5566406,10.5 78.5566406,11.7070312 L78.5566406,11.7070312 L78.5566406,13.4121094 Z M95.6601562,28.8808594 C97.2890625,28.8808594 98.6806641,28.6201172 99.8349609,28.0986328 C100.989258,27.5771484 101.8125,26.8330078 102.304688,25.8662109 C102.796875,24.8994141 103.042969,23.4667969 103.042969,21.5683594 C103.042969,19.8691406 102.720703,18.5742188 102.076172,17.6835938 C101.431641,16.7929688 100.078125,15.84375 98.015625,14.8359375 C96.46875,14.0742188 95.4462891,13.4941406 94.9482422,13.0957031 C94.4501953,12.6972656 94.1513672,12.3310547 94.0517578,11.9970703 C93.9521484,11.6630859 93.9023438,11.1386719 93.9023438,10.4238281 C93.9023438,9.89648438 94.0019531,9.50097656 94.2011719,9.23730469 C94.4003906,8.97363281 94.6992188,8.84179688 95.0976562,8.84179688 C95.5898438,8.84179688 95.8974609,8.98535156 96.0205078,9.27246094 C96.1435547,9.55957031 96.2050781,10.2421875 96.2050781,11.3203125 L96.2050781,11.3203125 L96.2050781,12.5859375 L102.498047,12.5859375 L102.498047,11.2324219 C102.498047,10.0605469 102.436523,9.19921875 102.313477,8.6484375 C102.19043,8.09765625 101.838867,7.5 101.258789,6.85546875 C100.678711,6.2109375 99.8466797,5.69238281 98.7626953,5.29980469 C97.6787109,4.90722656 96.3632812,4.7109375 94.8164062,4.7109375 C93.2578125,4.7109375 91.8896484,4.95117188 90.7119141,5.43164062 C89.5341797,5.91210938 88.6992188,6.59472656 88.2070312,7.47949219 C87.7148438,8.36425781 87.46875,9.73828125 87.46875,11.6015625 C87.46875,12.9140625 87.6972656,14.0478516 88.1542969,15.0029297 C88.6113281,15.9580078 89.8828125,17.0214844 91.96875,18.1933594 C94.453125,19.5761719 95.8300781,20.4082031 96.0996094,20.6894531 C96.3574219,20.9707031 96.4863281,21.6679688 96.4863281,22.78125 C96.4863281,23.5898438 96.3867188,24.1201172 96.1875,24.3720703 C95.9882812,24.6240234 95.6367188,24.75 95.1328125,24.75 C94.6640625,24.75 94.3505859,24.5625 94.1923828,24.1875 C94.0341797,23.8125 93.9550781,22.9980469 93.9550781,21.7441406 L93.9550781,21.7441406 L93.9550781,20.2675781 L87.6621094,20.2675781 L87.6621094,21.3925781 C87.6621094,23.3378906 87.9023438,24.7910156 88.3828125,25.7519531 C88.8632812,26.7128906 89.7451172,27.4746094 91.0283203,28.0371094 C92.3115234,28.5996094 93.8554688,28.8808594 95.6601562,28.8808594 Z M117.052734,28.4589844 L117.052734,22.7636719 L112.552734,22.7636719 L112.552734,0 L105.152344,0 L105.152344,28.4589844 L117.052734,28.4589844 Z M125.947266,3.70898438 L125.947266,0 L118.634766,0 L118.634766,3.70898438 L125.947266,3.70898438 Z M125.947266,28.4589844 L125.947266,5.1328125 L118.634766,5.1328125 L118.634766,28.4589844 L125.947266,28.4589844 Z M139.904297,28.8808594 C141.064453,28.8808594 142.066406,28.5732422 142.910156,27.9580078 C143.753906,27.3427734 144.290039,26.6162109 144.518555,25.7783203 C144.74707,24.9404297 144.861328,23.6660156 144.861328,21.9550781 L144.861328,21.9550781 L144.860882,11.1273651 C144.856419,9.58241272 144.818481,8.56274414 144.74707,8.06835938 C144.670898,7.54101563 144.445312,7.00195312 144.070312,6.45117188 C143.695312,5.90039062 143.150391,5.47265625 142.435547,5.16796875 C141.720703,4.86328125 140.876953,4.7109375 139.904297,4.7109375 C139.060547,4.7109375 138.27832,4.87792969 137.557617,5.21191406 C136.836914,5.54589844 136.183594,6.05273438 135.597656,6.73242188 L135.597656,6.73242188 L135.597656,0 L128.496094,0 L128.496094,28.4589844 L135.140625,28.4589844 L135.597656,26.7011719 C136.195312,27.4277344 136.854492,27.9726562 137.575195,28.3359375 C138.295898,28.6992188 139.072266,28.8808594 139.904297,28.8808594 Z M136.6875,24.75 C136.253906,24.75 135.963867,24.5742188 135.817383,24.2226562 C135.670898,23.8710938 135.597656,23.0683594 135.597656,21.8144531 L135.597656,21.8144531 L135.597656,11.7597656 C135.597656,10.4589844 135.662109,9.64746094 135.791016,9.32519531 C135.919922,9.00292969 136.201172,8.84179688 136.634766,8.84179688 C137.080078,8.84179688 137.378906,9.02636719 137.53125,9.39550781 C137.683594,9.76464844 137.759766,10.5527344 137.759766,11.7597656 L137.759766,11.7597656 L137.759766,21.5859375 C137.759766,22.96875 137.692383,23.8417969 137.557617,24.2050781 C137.422852,24.5683594 137.132812,24.75 136.6875,24.75 Z M154.300781,28.4589844 L154.301309,18.9149194 C154.307988,16.843938 154.378125,15.5106445 154.511719,14.9150391 C154.652344,14.2880859 155.027344,13.7988281 155.636719,13.4472656 C156.246094,13.0957031 157.201172,12.9199219 158.501953,12.9199219 L158.501953,12.9199219 L158.501953,4.7109375 C156.544922,4.83984375 155.050781,6 154.019531,8.19140625 L154.019531,8.19140625 L154.300781,5.1328125 L147.199219,5.1328125 L147.199219,28.4589844 L154.300781,28.4589844 Z M164.742188,28.8808594 C165.691406,28.8808594 166.508789,28.6728516 167.194336,28.2568359 C167.879883,27.8408203 168.439453,27.2167969 168.873047,26.3847656 L168.873047,26.3847656 L168.873047,28.4589844 L175.78125,28.4589844 L175.780744,16.3289569 C175.771967,12.7096957 175.649089,10.304796 175.412109,9.11425781 C175.166016,7.87792969 174.433594,6.83496094 173.214844,5.98535156 C171.996094,5.13574219 170.185547,4.7109375 167.783203,4.7109375 C165.779297,4.7109375 164.150391,5.0859375 162.896484,5.8359375 C161.642578,6.5859375 160.807617,7.45019531 160.391602,8.42871094 C159.975586,9.40722656 159.767578,10.7988281 159.767578,12.6035156 L159.767578,12.6035156 L159.767578,14.1679688 L166.429688,14.1679688 L166.429688,11.7246094 C166.429688,10.4238281 166.488281,9.61816406 166.605469,9.30761719 C166.722656,8.99707031 167.021484,8.84179688 167.501953,8.84179688 C167.923828,8.84179688 168.225586,9.02636719 168.407227,9.39550781 C168.588867,9.76464844 168.679688,10.5585938 168.679688,11.7773438 C168.679688,12.75 168.597656,13.3945312 168.433594,13.7109375 C168.269531,14.0273438 167.021484,14.6425781 164.689453,15.5566406 C162.509766,16.4003906 161.144531,17.1386719 160.59375,17.7714844 C160.042969,18.4042969 159.767578,19.59375 159.767578,21.3398438 L159.767578,21.3398438 L159.767578,23.2558594 C159.767578,25.6113281 160.286133,27.1376953 161.323242,27.8349609 C162.360352,28.5322266 163.5,28.8808594 164.742188,28.8808594 Z M167.607422,24.75 C167.138672,24.75 166.825195,24.5742188 166.666992,24.2226562 C166.508789,23.8710938 166.429688,23.0917969 166.429688,21.8847656 C166.429688,20.8300781 166.520508,20.0214844 166.702148,19.4589844 C166.883789,18.8964844 167.542969,18.1992188 168.679688,17.3671875 L168.679688,17.3671875 L168.679688,22.1660156 C168.679688,23.3378906 168.612305,24.0615234 168.477539,24.3369141 C168.342773,24.6123047 168.052734,24.75 167.607422,24.75 Z M185.326172,28.4589844 L185.326172,19.2480469 C185.326172,16.9863281 185.396484,15.5419922 185.537109,14.9150391 C185.677734,14.2880859 186.052734,13.7988281 186.662109,13.4472656 C187.271484,13.0957031 188.226562,12.9199219 189.527344,12.9199219 L189.527344,12.9199219 L189.527344,4.7109375 C187.570312,4.83984375 186.076172,6 185.044922,8.19140625 L185.044922,8.19140625 L185.326172,5.1328125 L178.224609,5.1328125 L178.224609,28.4589844 L185.326172,28.4589844 Z M196.3125,31.7285156 C198.28125,31.7285156 199.713867,31.5791016 200.610352,31.2802734 C201.506836,30.9814453 202.207031,30.515625 202.710938,29.8828125 C203.214844,29.25 203.575195,28.4472656 203.791992,27.4746094 C204.008789,26.5019531 204.275391,24.6796875 204.591797,22.0078125 L204.591797,22.0078125 L206.630859,5.1328125 L200.179688,5.1328125 L199.054688,20.8652344 L196.734375,5.1328125 L190.283203,5.1328125 L194.167969,24.6445312 C194.460938,26.0859375 194.607422,26.9003906 194.607422,27.0878906 C194.607422,27.4746094 194.449219,27.7236328 194.132812,27.8349609 C193.816406,27.9462891 193.107422,28.0019531 192.005859,28.0019531 L192.005859,28.0019531 L192.005859,31.7285156 L196.3125,31.7285156 Z" id="path-1"></path>
        <filter x="0.0%" y="0.0%" width="100.0%" height="100.0%" filterUnits="objectBoundingBox" id="filter-2">
            <feGaussianBlur stdDeviation="0" in="SourceGraphic"></feGaussianBlur>
        </filter>
        <filter x="-1.0%" y="-6.3%" width="101.9%" height="112.6%" filterUnits="objectBoundingBox" id="filter-3">
            <feGaussianBlur stdDeviation="1.5" in="SourceAlpha" result="shadowBlurInner1"></feGaussianBlur>
            <feOffset dx="0" dy="1" in="shadowBlurInner1" result="shadowOffsetInner1"></feOffset>
            <feComposite in="shadowOffsetInner1" in2="SourceAlpha" operator="arithmetic" k2="-1" k3="1" result="shadowInnerInner1"></feComposite>
            <feColorMatrix values="0 0 0 0 0   0 0 0 0 0   0 0 0 0 0  0 0 0 0.813893138 0" type="matrix" in="shadowInnerInner1"></feColorMatrix>
        </filter>
    </defs>
    <g id="Symbols" stroke="none" stroke-width="1" fill="none" fill-rule="evenodd">
        <g id="MoviesLibrary" fill-rule="nonzero">
            <g filter="url(#filter-2)">
                <use fill="#000000" xlink:href="#path-1"></use>
                <use fill-opacity="0.76" fill="#060606" xlink:href="#path-1"></use>
                <use fill="black" fill-opacity="1" filter="url(#filter-3)" xlink:href="#path-1"></use>
            </g>
        </g>
    </g>
</svg>